<svg width="27" height="27" viewBox="0 0 27 27" fill="none" xmlns="http://www.w3.org/2000/svg">
<g clip-path="url(#clip0_666_1330)">
<path d="M-1 21.5542V5.4442C-1 5.42553 -0.972 5.24853 -0.916 4.9132L8.564 13.0232L-0.888 22.1132C-0.94769 21.9321 -0.985296 21.7444 -1 21.5542ZM0.258 3.7962C0.409053 3.73647 0.570623 3.7079 0.733 3.7122H26.266C26.4361 3.71317 26.6049 3.74153 26.766 3.7962L17.261 11.9342L16.003 12.9442L13.514 14.9852L11.028 12.9442L9.767 11.9342L0.258 3.7962ZM0.286 23.2042L9.822 14.0592L13.513 17.0512L17.204 14.0592L26.74 23.2042C26.588 23.2606 26.4271 23.2891 26.265 23.2882H0.734C0.581153 23.2874 0.428713 23.2589 0.286 23.2042ZM18.464 13.0252L27.916 4.9152C27.9725 5.0865 28.0009 5.26582 28 5.4462V21.5542C27.9968 21.7434 27.9686 21.9314 27.916 22.1132L18.464 13.0252Z" fill="#494949"/>
</g>
<defs>
<clipPath id="clip0_666_1330">
<rect width="26" height="26" fill="white" transform="translate(0.5 0.5)"/>
</clipPath>
</defs>
</svg>
