<svg width="29" height="20" viewBox="0 0 29 20" fill="none" xmlns="http://www.w3.org/2000/svg">
<path d="M0 18.1302V2.0202C0 2.00154 0.028 1.82454 0.084 1.4892L9.564 9.5992L0.112 18.6892C0.0523095 18.5081 0.0147042 18.3204 0 18.1302ZM1.258 0.372203C1.40905 0.312475 1.57062 0.283902 1.733 0.288203H27.266C27.4361 0.289175 27.6049 0.317539 27.766 0.372203L18.261 8.5102L17.003 9.5202L14.514 11.5612L12.028 9.5202L10.767 8.5102L1.258 0.372203ZM1.286 19.7802L10.822 10.6352L14.513 13.6272L18.204 10.6352L27.74 19.7802C27.588 19.8366 27.4271 19.8651 27.265 19.8642H1.734C1.58115 19.8634 1.42871 19.8349 1.286 19.7802ZM19.464 9.6012L28.916 1.4912C28.9725 1.6625 29.0009 1.84183 29 2.0222V18.1302C28.9968 18.3194 28.9686 18.5074 28.916 18.6892L19.464 9.6012Z" fill="#FAB03C"/>
</svg>
