<svg width="172" height="61" viewBox="0 0 172 61" fill="none" xmlns="http://www.w3.org/2000/svg">
<path d="M9.26514 53.9237C6.88329 60.0885 14.5248 60.1417 14.5248 57.8832C14.5248 50.8469 19.2983 25.399 48.1621 25.399V24.7965C48.1621 24.7965 20.8647 18.9792 9.26514 53.9237Z" fill="#FAAF41"/>
<path d="M77.3455 37.6244C76.7552 37.3741 76.2111 37.0265 75.7357 36.5961C75.2686 36.1059 74.8275 35.5914 74.4145 35.0549L66.2881 25.1562C68.3199 25.1717 70.3341 24.7781 72.2106 23.9989C73.7049 23.3394 74.9822 22.2708 75.8954 20.9165C76.757 19.5771 77.2031 18.0128 77.1774 16.4204C77.2043 14.8704 76.7436 13.3512 75.8604 12.0771C74.9158 10.7791 73.6127 9.78514 72.1111 9.21745C69.8214 8.46409 67.4143 8.13179 65.0062 8.23667H48.4734V10.5317H49.9614C50.5044 10.4935 51.0492 10.5753 51.5572 10.7713C51.8623 10.9475 52.1003 11.22 52.2339 11.546C52.4391 12.1573 52.5256 12.8022 52.4889 13.4459V34.1554C52.4692 35.9151 52.4398 36.3256 52.4258 36.4055C52.3606 36.7434 52.2166 37.0612 52.0055 37.333C51.8302 37.5545 51.5997 37.726 51.3372 37.8304C50.822 37.9541 50.2913 38.0013 49.7624 37.9705H48.4776V40.2683H60.9822V37.9705H59.9707C59.2674 38.0263 58.5604 37.9268 57.8998 37.6791C57.5475 37.4568 57.2923 37.1094 57.1854 36.7067C57.0824 36.0494 57.0467 35.3832 57.0788 34.7186V25.159H60.8547L72.4319 40.1912L72.4907 40.2669H79.9894V37.9691H79.2314C78.5862 37.9799 77.9452 37.8627 77.3455 37.6244ZM70.923 20.2888C70.1918 21.2351 69.1681 21.9129 68.0115 22.2167C66.5009 22.5439 64.9548 22.6776 63.4104 22.6146H57.0858V11.0949H65.1155C66.4836 11.0239 67.8515 11.2382 69.1324 11.724C69.9989 12.1273 70.7253 12.7801 71.2186 13.5987C71.7554 14.5447 72.0206 15.6205 71.985 16.7077C72.0367 17.986 71.6632 19.2454 70.923 20.2888Z" fill="white"/>
<path d="M108.203 31.1558C106.77 33.1262 104.926 34.7616 102.799 35.9489C100.95 37.022 98.8587 37.6091 96.7211 37.6554C94.6457 37.6584 92.6124 37.0704 90.859 35.9601C88.999 34.7745 87.5043 33.0965 86.5408 31.1124C85.4455 28.8726 84.8967 26.4051 84.9394 23.9122C84.9029 21.4662 85.4433 19.046 86.517 16.8479C87.4289 14.9218 88.848 13.2803 90.6222 12.0996C92.2702 11.0358 94.1921 10.4745 96.1536 10.4842C97.7872 10.4682 99.3982 10.8663 100.836 11.6415C102.243 12.4058 103.458 13.4793 104.389 14.7813C105.367 16.3374 106.225 17.9655 106.956 19.6515L107.026 19.8014L109.484 19.1149L106.518 8.23545H104.595L103.903 10.2138C102.723 9.40845 101.437 8.77226 100.081 8.3237C98.6845 7.89211 97.2299 7.67851 95.7684 7.69041C92.917 7.68219 90.1173 8.45244 87.6714 9.91813C85.2143 11.3641 83.184 13.4351 81.787 15.9204C80.3524 18.4973 79.6163 21.4044 79.6516 24.3535C79.5746 28.3428 80.9449 32.2249 83.5089 35.282C84.9751 37.0677 86.8299 38.4949 88.9318 39.4546C91.0336 40.4142 93.3269 40.8809 95.6366 40.8191C97.7547 40.8419 99.8578 40.4615 101.834 39.6982C103.837 38.8677 105.677 37.6873 107.267 36.2123C108.437 35.1536 109.47 33.9524 110.341 32.6367L110.449 32.477L108.319 31.0129L108.203 31.1558Z" fill="white"/>
<path d="M133.64 10.5279H134.72C135.327 10.4904 135.935 10.592 136.498 10.8249C136.862 11.0194 137.148 11.3337 137.307 11.7146C137.531 12.3872 137.627 13.0959 137.588 13.8036V27.5175C137.704 29.4696 137.393 31.4236 136.678 33.2437C135.945 34.5618 134.845 35.6381 133.511 36.3415C132.055 37.1985 130.398 37.6517 128.709 37.6543C127.091 37.667 125.499 37.2451 124.099 36.4326C122.831 35.7444 121.792 34.699 121.112 33.4258C120.413 31.6564 120.107 29.7561 120.214 27.8565V13.6005C120.161 12.8882 120.24 12.1722 120.448 11.489C120.572 11.1879 120.804 10.9446 121.1 10.8081C121.759 10.5821 122.455 10.4869 123.151 10.5279H124.163V8.23291H111.544V10.5279H112.874C113.46 10.4871 114.049 10.5736 114.599 10.7815C114.915 10.9564 115.162 11.2336 115.299 11.5675C115.509 12.2235 115.596 12.9129 115.554 13.6005V29.1161C115.48 31.2254 115.972 33.3162 116.978 35.1716C118.057 36.9007 119.596 38.2962 121.422 39.2025C123.495 40.256 125.787 40.8078 128.112 40.8137C130.438 40.8195 132.732 40.2791 134.811 39.2361C136.667 38.2568 138.205 36.7661 139.241 34.9404C140.318 32.8569 140.843 30.5315 140.764 28.1872V13.6005C140.666 12.7381 140.884 11.8696 141.378 11.1556C142.043 10.6587 142.874 10.4342 143.699 10.5279H144.621V8.23291H133.638L133.64 10.5279Z" fill="white"/>
<path d="M171.322 27.9518C170.893 26.9783 170.257 26.1104 169.457 25.4088C168.466 24.6001 167.36 23.9433 166.176 23.4599C165.139 22.9863 164.076 22.5745 162.991 22.2269L157.071 20.4742C155.667 20.108 154.311 19.579 153.029 18.898C152.306 18.4835 151.69 17.904 151.233 17.2068C150.859 16.6205 150.657 15.9409 150.65 15.2453C150.667 14.4519 150.933 13.6837 151.408 13.0484C151.999 12.2575 152.794 11.6419 153.707 11.2677C154.812 10.788 156.006 10.5492 157.21 10.5671C159.339 10.5594 161.412 11.2385 163.124 12.5034C165.381 14.1586 167.183 16.3572 168.363 18.8952L168.436 19.0451L170.882 18.3081L168.38 8.22033H166.464L165.559 10.2799C164.658 9.56772 163.651 9.0005 162.575 8.5986C160.943 7.98568 159.214 7.67424 157.471 7.67948C155.453 7.65789 153.455 8.08876 151.625 8.94045C150.043 9.62444 148.67 10.7156 147.646 12.1027C146.796 13.3147 146.34 14.7596 146.342 16.2401C146.335 18.1254 147.051 19.9417 148.343 21.3148C150.25 23.0981 152.6 24.3397 155.148 24.9114L160.819 26.5437C162.721 26.9893 164.515 27.808 166.097 28.9522C166.555 29.3546 166.919 29.8529 167.163 30.4118C167.407 30.9707 167.525 31.5763 167.508 32.1859C167.493 32.9212 167.307 33.6429 166.965 34.2941C166.624 34.9453 166.135 35.5081 165.538 35.938C163.956 37.2157 161.977 37.8988 159.944 37.8687C158.331 37.8581 156.742 37.4806 155.298 36.7646C153.697 35.9672 152.275 34.8527 151.118 33.4889C149.79 31.9249 148.76 30.1308 148.079 28.1956L148.022 28.0373L145.56 28.5403L147.73 40.2547H149.625L150.622 37.3671C151.958 38.4714 153.457 39.3606 155.067 40.0025C156.642 40.5526 158.302 40.8214 159.97 40.7969C163.113 40.9278 166.195 39.907 168.637 37.9261C169.668 37.1263 170.505 36.1049 171.087 34.9376C171.669 33.7703 171.981 32.4869 172 31.1827C172.005 30.0699 171.774 28.9686 171.322 27.9518Z" fill="white"/>
<path d="M47.3847 24.7783L48.1637 24.8077V22.8014L47.4632 22.7719C46.949 22.7523 46.4292 22.7425 45.915 22.7425C43.4215 22.7425 40.9334 22.9723 38.4822 23.429L29.979 0.591349L29.9314 0.463867H25.0542L12.7527 33.1092C10.7491 38.4795 9.28219 42.6632 8.10388 46.0258C4.41902 56.5339 3.94546 57.8831 0.194751 57.8845H0V60.1417H14.5713L14.5293 57.8845H12.8227C12.4301 57.923 12.034 57.8617 11.6713 57.7064C11.3086 57.5511 10.991 57.3069 10.7477 56.9963C10.4638 56.5582 10.2929 56.0566 10.2503 55.5363C12.0844 42.6211 21.5781 31.5595 33.8124 26.9934L36.0653 33.657C36.4377 34.5681 36.6992 35.5206 36.8443 36.4942C36.8388 36.7391 36.7683 36.9782 36.6401 37.187C36.5118 37.3957 36.3304 37.5667 36.1144 37.6823C35.5895 37.9062 35.016 37.9921 34.4485 37.9317C34.0099 37.9317 33.5602 37.9513 33.109 37.9877L32.7448 38.0031V40.2715H47.1129V37.9849H46.2526C45.8695 38.0088 45.4855 37.9542 45.1241 37.8246C44.7628 37.695 44.4316 37.4931 44.151 37.2311C43.3307 36.3127 42.7286 35.2206 42.3898 34.0367L39.2332 25.4382C41.4851 24.9819 43.777 24.7515 46.0747 24.7503C46.5076 24.7531 46.9532 24.7615 47.3847 24.7783ZM18.9132 33.0811C17.6886 34.1819 16.5346 35.3588 15.4582 36.6049C15.7608 35.7268 16.0606 34.8395 16.3577 33.9428L26.318 6.29799L32.1801 22.6907L33.0432 24.8427C27.8197 26.5943 23.0107 29.3981 18.9132 33.0811Z" fill="white"/>
<path d="M23.5776 48.439H27.0691C27.5197 48.4399 27.969 48.4868 28.41 48.579C28.841 48.6646 29.2531 48.8274 29.6261 49.0596C29.9887 49.2903 30.2897 49.6058 30.5032 49.9788C30.744 50.4251 30.861 50.9277 30.8423 51.4345C30.8532 52.0216 30.6545 52.5933 30.2818 53.0471C29.8974 53.5109 29.366 53.8292 28.7757 53.9494V53.9831C29.4906 54.0499 30.1602 54.3628 30.6699 54.8685C30.9272 55.1403 31.1266 55.4615 31.2559 55.8127C31.3853 56.1639 31.4419 56.5376 31.4223 56.9113C31.4291 57.3696 31.3261 57.8228 31.1219 58.2331C30.9176 58.6433 30.618 58.9986 30.2482 59.2693C29.8343 59.5691 29.3689 59.7904 28.8751 59.9222C28.2818 60.0842 27.6688 60.1625 27.0538 60.1548H23.579L23.5776 48.439ZM24.7686 53.5684H27.1672C27.4596 53.5679 27.751 53.5346 28.0359 53.4689C28.3219 53.4055 28.5939 53.2906 28.8387 53.1298C29.0828 52.9677 29.2842 52.7489 29.4258 52.4923C29.584 52.1903 29.6608 51.8523 29.6486 51.5115C29.6592 51.1804 29.5824 50.8522 29.4258 50.5602C29.2783 50.3025 29.0712 50.084 28.8219 49.9227C28.5487 49.7496 28.2455 49.6289 27.928 49.5668C27.5684 49.4934 27.2022 49.4573 26.8352 49.459H24.7672L24.7686 53.5684ZM24.7686 59.1279H26.9865C27.4007 59.1293 27.8139 59.0875 28.2195 59.0031C28.582 58.9315 28.9291 58.7969 29.245 58.6052C29.5321 58.4274 29.7724 58.1834 29.9456 57.8935C30.1866 57.4396 30.2663 56.9174 30.1716 56.4123C30.0769 55.9073 29.8134 55.4494 29.4244 55.1137C28.761 54.6945 27.9827 54.4946 27.1995 54.5421H24.7672L24.7686 59.1279Z" fill="white"/>
<path d="M39.4295 60.1548H38.2386V48.439H39.4295V60.1548Z" fill="white"/>
<path d="M58.26 54.2947C58.2692 55.1392 58.1116 55.9772 57.7963 56.7607C57.5038 57.4871 57.0675 58.147 56.5138 58.7008C55.9601 59.2545 55.3002 59.6907 54.5738 59.9832C53.0169 60.6007 51.283 60.6007 49.726 59.9832C48.9996 59.6908 48.3397 59.2546 47.7859 58.7008C47.2322 58.1471 46.796 57.4871 46.5035 56.7607C45.8854 55.1748 45.8854 53.4147 46.5035 51.8289C46.796 51.1024 47.2322 50.4425 47.7859 49.8887C48.3397 49.335 48.9996 48.8988 49.726 48.6063C51.2829 47.9886 53.0169 47.9886 54.5738 48.6063C55.3002 48.8989 55.9601 49.3351 56.5138 49.8888C57.0675 50.4426 57.5038 51.1025 57.7963 51.8289C58.1117 52.6123 58.2693 53.4503 58.26 54.2947ZM56.9991 54.2947C57.0022 53.63 56.8903 52.9698 56.6684 52.3431C56.4577 51.7426 56.1317 51.1891 55.7087 50.7136C55.282 50.2379 54.761 49.8562 54.1787 49.5928C53.5379 49.32 52.8485 49.1793 52.152 49.1793C51.4555 49.1793 50.7662 49.32 50.1254 49.5928C49.5431 49.8561 49.022 50.2378 48.5953 50.7136C48.1722 51.189 47.8462 51.7426 47.6356 52.3431C47.1943 53.6073 47.1943 54.9837 47.6356 56.2479C47.845 56.8465 48.1712 57.3975 48.5953 57.869C49.0239 58.3394 49.5448 58.7166 50.1254 58.9772C50.7662 59.2501 51.4555 59.3908 52.152 59.3908C52.8485 59.3908 53.5379 59.2501 54.1787 58.9772C54.7593 58.7166 55.28 58.3393 55.7087 57.869C56.1327 57.3974 56.4589 56.8464 56.6684 56.2479C56.8914 55.621 57.0042 54.9601 57.0018 54.2947H56.9991Z" fill="white"/>
<path d="M70.5532 50.3239C70.2959 49.9685 69.9603 49.6771 69.5724 49.4721C69.1273 49.2459 68.6326 49.135 68.1335 49.1498C67.8363 49.1512 67.541 49.1956 67.2565 49.2815C66.9644 49.3668 66.6901 49.504 66.4466 49.6865C66.203 49.8695 66.0026 50.1039 65.8596 50.373C65.704 50.676 65.6274 51.0132 65.6368 51.3537C65.6239 51.676 65.6978 51.9959 65.8511 52.2798C65.996 52.5245 66.1908 52.736 66.4228 52.9005C66.6724 53.0776 66.9454 53.2191 67.234 53.3209C67.5375 53.4311 67.8547 53.5412 68.1853 53.6515C68.5935 53.7841 69.0045 53.9275 69.4183 54.0816C69.819 54.2281 70.1964 54.4315 70.5392 54.6855C70.874 54.938 71.1507 55.2596 71.3504 55.6284C71.5751 56.0768 71.6831 56.5746 71.6643 57.0758C71.6804 57.5693 71.5784 58.0595 71.3669 58.5057C71.1553 58.952 70.8403 59.3412 70.4481 59.6411C70.0823 59.9208 69.6668 60.1286 69.2236 60.2534C68.7748 60.3846 68.3097 60.4516 67.8421 60.4523C67.4863 60.452 67.1314 60.4159 66.7829 60.3445C66.4353 60.2748 66.0965 60.1666 65.7727 60.0222C65.4526 59.879 65.1522 59.6955 64.8788 59.4758C64.6031 59.2559 64.358 59 64.1502 58.715L65.1758 57.9543C65.4417 58.3855 65.808 58.7461 66.2435 59.0051C66.7309 59.2938 67.2898 59.4394 67.8561 59.4254C68.1649 59.4239 68.4719 59.3767 68.7668 59.2852C69.0713 59.1953 69.3564 59.0494 69.6075 58.8551C69.8568 58.6608 70.0649 58.4189 70.2198 58.1433C70.3776 57.8332 70.4599 57.4902 70.4599 57.1423C70.4599 56.7943 70.3776 56.4513 70.2198 56.1412C70.0595 55.8712 69.8419 55.6397 69.5822 55.4631C69.2998 55.2722 68.9936 55.1191 68.6715 55.0077C68.3296 54.8863 67.971 54.7649 67.5955 54.6434C67.22 54.522 66.8394 54.3819 66.4537 54.2231C66.0881 54.0746 65.7474 53.8709 65.4435 53.6192C65.1421 53.3668 64.8968 53.0543 64.7232 52.7016C64.5315 52.2574 64.4381 51.777 64.4494 51.2933C64.4608 50.8096 64.5767 50.3341 64.7891 49.8994C65.006 49.5018 65.3085 49.1572 65.6746 48.8906C66.0387 48.626 66.448 48.43 66.8823 48.312C67.3079 48.1926 67.7476 48.1313 68.1895 48.1298C68.8916 48.1095 69.5887 48.2534 70.2253 48.5501C70.723 48.7794 71.1599 49.1226 71.5003 49.5519L70.5532 50.3239Z" fill="white"/>
<path d="M88.2096 58.2674C88.0022 58.574 87.7605 58.8561 87.4894 59.1081C87.1948 59.3839 86.8651 59.6195 86.5087 59.8087C86.1208 60.0143 85.7096 60.1728 85.2841 60.2808C84.8054 60.4004 84.3134 60.4588 83.82 60.4546C82.9811 60.4626 82.1488 60.3049 81.3709 59.9907C80.6455 59.7007 79.9872 59.2651 79.4366 58.7109C78.8859 58.1567 78.4547 57.4955 78.1694 56.7682C77.8594 55.9835 77.7048 55.146 77.714 54.3023C77.7047 53.4578 77.8623 52.6199 78.1778 51.8365C78.4702 51.11 78.9064 50.4501 79.4602 49.8963C80.0139 49.3426 80.6739 48.9064 81.4003 48.6139C82.1695 48.3001 82.9935 48.1425 83.8242 48.1502C84.6609 48.1501 85.4888 48.3219 86.2565 48.6546C86.6092 48.8077 86.9427 49.0019 87.2498 49.2332C87.5369 49.4487 87.788 49.7084 87.9938 50.0024L87.0004 50.731C86.8614 50.5245 86.6972 50.3362 86.5114 50.1706C86.2942 49.9743 86.0521 49.8075 85.7913 49.6746C85.5037 49.527 85.2013 49.4105 84.889 49.3271C84.5462 49.2363 84.1928 49.1915 83.8382 49.194C83.1344 49.1841 82.4369 49.3276 81.794 49.6144C81.2117 49.8777 80.6906 50.2594 80.264 50.7352C79.8409 51.2106 79.5148 51.7641 79.3043 52.3646C79.0819 52.9912 78.9701 53.6515 78.9737 54.3163C78.9703 54.9823 79.085 55.6437 79.3126 56.2695C79.5283 56.8695 79.857 57.4226 80.2808 57.8989C80.7075 58.3748 81.2285 58.7565 81.8108 59.0198C82.4481 59.3054 83.1399 59.4489 83.8382 59.4402C84.5009 59.4403 85.1557 59.2968 85.7577 59.0198C86.3794 58.7304 86.9068 58.2715 87.2793 57.6957L88.2096 58.2674Z" fill="white"/>
<path d="M95.5877 60.1548H94.3968V48.439H95.5877V60.1548Z" fill="white"/>
<path d="M104.028 59.0941H110.299V60.1534H102.837V48.4375H110.102V49.4967H104.029V53.5346H109.705V54.577H104.029L104.028 59.0941Z" fill="white"/>
<path d="M125.074 58.4161H125.107V48.439H126.298V60.1548H124.809L117.991 50.0768H117.957V60.1548H116.767V48.439H118.256L125.074 58.4161Z" fill="white"/>
<path d="M143.408 58.2674C143.201 58.5741 142.959 58.8561 142.688 59.1081C142.394 59.3838 142.064 59.6194 141.707 59.8087C141.319 60.0142 140.908 60.1727 140.483 60.2808C140.004 60.4005 139.512 60.4589 139.019 60.4546C138.18 60.4625 137.347 60.3048 136.569 59.9907C135.844 59.7007 135.186 59.2651 134.635 58.7109C134.085 58.1567 133.653 57.4955 133.368 56.7682C133.058 55.9835 132.903 55.146 132.913 54.3023C132.904 53.4579 133.061 52.62 133.377 51.8365C133.669 51.11 134.105 50.4501 134.659 49.8963C135.213 49.3426 135.872 48.9064 136.599 48.6139C137.368 48.3001 138.192 48.1425 139.023 48.1502C139.86 48.15 140.687 48.3217 141.455 48.6546C141.808 48.8075 142.141 49.0017 142.449 49.2332C142.736 49.4486 142.987 49.7083 143.192 50.0024L142.199 50.731C142.061 50.5246 141.897 50.3363 141.712 50.1706C141.494 49.9744 141.252 49.8076 140.991 49.6746C140.704 49.527 140.401 49.4105 140.089 49.3271C139.746 49.2363 139.393 49.1915 139.038 49.194C138.335 49.1843 137.638 49.3278 136.996 49.6144C136.413 49.8776 135.892 50.2594 135.465 50.7352C135.042 51.2106 134.716 51.7641 134.506 52.3646C134.284 52.9912 134.172 53.6516 134.175 54.3163C134.172 54.9823 134.286 55.6437 134.514 56.2695C134.73 56.8695 135.058 57.4226 135.482 57.8989C135.909 58.3749 136.43 58.7566 137.012 59.0198C137.65 59.3054 138.341 59.4489 139.04 59.4402C139.702 59.4404 140.357 59.2969 140.959 59.0198C141.581 58.7307 142.109 58.2717 142.482 57.6957L143.408 58.2674Z" fill="white"/>
<path d="M150.788 59.0941H157.059V60.1534H149.597V48.4375H156.861V49.4967H150.789V53.5346H156.465V54.577H150.789L150.788 59.0941Z" fill="white"/>
<path d="M169.205 50.3239C168.948 49.9685 168.612 49.6771 168.224 49.472C167.779 49.2457 167.283 49.1348 166.784 49.1497C166.487 49.151 166.191 49.1954 165.907 49.2815C165.614 49.3667 165.34 49.5038 165.096 49.6864C164.852 49.8697 164.652 50.104 164.509 50.3729C164.353 50.676 164.276 51.0132 164.286 51.3536C164.273 51.6761 164.348 51.9961 164.502 52.2798C164.646 52.5243 164.84 52.7357 165.072 52.9004C165.322 53.0774 165.594 53.2189 165.883 53.3208C166.186 53.4311 166.503 53.5412 166.834 53.6514C167.242 53.7841 167.653 53.9275 168.067 54.0816C168.468 54.228 168.845 54.4315 169.188 54.6855C169.523 54.938 169.8 55.2595 169.999 55.6284C170.224 56.0767 170.332 56.5746 170.313 57.0757C170.329 57.5693 170.227 58.0595 170.016 58.5056C169.804 58.9518 169.489 59.3411 169.097 59.6411C168.731 59.9206 168.316 60.1283 167.873 60.2534C167.424 60.3846 166.959 60.4516 166.491 60.4523C166.135 60.452 165.78 60.4159 165.432 60.3445C165.085 60.2747 164.746 60.1666 164.423 60.0222C164.103 59.879 163.802 59.6955 163.529 59.4758C163.253 59.2559 163.008 59 162.801 58.715L163.826 57.9542C164.092 58.3855 164.458 58.746 164.894 59.005C165.381 59.2937 165.94 59.4394 166.506 59.4254C166.815 59.4238 167.121 59.3765 167.416 59.2852C167.72 59.1953 168.005 59.0494 168.256 58.8551C168.506 58.6608 168.714 58.4188 168.869 58.1433C169.026 57.8332 169.109 57.4902 169.109 57.1423C169.109 56.7943 169.026 56.4513 168.869 56.1412C168.709 55.8712 168.491 55.6396 168.231 55.4631C167.949 55.2725 167.643 55.1194 167.322 55.0077C166.979 54.8863 166.621 54.7648 166.246 54.6434C165.871 54.522 165.491 54.3819 165.104 54.2231C164.739 54.0746 164.399 53.8709 164.095 53.6192C163.794 53.3667 163.549 53.0542 163.375 52.7015C163.184 52.2572 163.091 51.7769 163.102 51.2933C163.113 50.8097 163.229 50.3342 163.441 49.8994C163.658 49.5018 163.96 49.1573 164.326 48.8905C164.691 48.626 165.1 48.4299 165.534 48.3119C165.96 48.1927 166.399 48.1314 166.841 48.1298C167.543 48.1096 168.24 48.2535 168.876 48.5501C169.373 48.7795 169.809 49.1227 170.149 49.5519L169.205 50.3239Z" fill="white"/>
</svg>
