<svg width="24" height="24" viewBox="0 0 24 24" fill="none" xmlns="http://www.w3.org/2000/svg">
<g clip-path="url('#clip0_482_64')">
<path d="M22.2856 0H1.70934C1.25328 0.00322992 0.817139 0.187291 0.49666 0.511778C0.176182 0.836265 -0.00244464 1.27466 -5.8698e-06 1.73072V22.2703C-0.00244464 22.7264 0.176182 23.1648 0.49666 23.4892C0.817139 23.8137 1.25328 23.9978 1.70934 24.001H22.2856C22.7418 23.9967 23.1778 23.8125 23.4989 23.4884C23.8199 23.1643 24 22.7265 24 22.2703V1.73072C24 1.27451 23.8199 0.836748 23.4989 0.512639C23.1778 0.188531 22.7418 0.00429371 22.2856 0ZM7.25375 20.5711H3.69661V9.11784H7.25986V20.5711H7.25375ZM5.47518 7.55408C5.06706 7.55489 4.66788 7.43461 4.32815 7.20845C3.98842 6.9823 3.72341 6.66045 3.56667 6.28363C3.40993 5.90681 3.36851 5.49196 3.44763 5.09158C3.52676 4.6912 3.72288 4.3233 4.01118 4.03443C4.29948 3.74556 4.66699 3.54871 5.06721 3.4688C5.46743 3.38888 5.88236 3.42949 6.25949 3.58548C6.63662 3.74148 6.959 4.00584 7.18582 4.34513C7.41264 4.68441 7.53372 5.08335 7.53372 5.49147C7.53345 6.03772 7.31661 6.56159 6.93074 6.94823C6.54486 7.33487 6.02143 7.55274 5.47518 7.55408ZM20.5874 20.5711H17.0303V15.0003C17.0303 13.6717 17.0038 11.9623 15.1825 11.9623C13.3286 11.9623 13.0445 13.409 13.0445 14.9035V20.5711H9.4874V9.11784H12.9V10.6826H12.9478C13.2903 10.099 13.7844 9.61905 14.3777 9.29371C14.9711 8.96837 15.6414 8.80979 16.3176 8.83482C19.9175 8.83482 20.5874 11.2079 20.5874 14.2937V20.5711Z" fill="white"></path>
</g>
<defs>
<clipPath id="clip0_482_64">
<rect width="24" height="24" fill="white"></rect>
</clipPath>
</defs>
</svg>
