<svg width="27" height="27" viewBox="0 0 27 27" fill="none" xmlns="http://www.w3.org/2000/svg">
<path d="M24.6427 0.5H2.35178C1.85772 0.503499 1.38524 0.702899 1.03805 1.05443C0.690866 1.40595 0.497354 1.88088 0.499996 2.37495V24.6262C0.497354 25.1202 0.690866 25.5951 1.03805 25.9467C1.38524 26.2982 1.85772 26.4976 2.35178 26.5011H24.6427C25.1369 26.4965 25.6093 26.2969 25.9571 25.9457C26.3049 25.5946 26.5 25.1204 26.5 24.6262V2.37495C26.5 1.88072 26.3049 1.40648 25.9571 1.05536C25.6093 0.704241 25.1369 0.504652 24.6427 0.5ZM8.35823 22.7854H4.50466V10.3777H8.36485V22.7854H8.35823ZM6.43145 8.68359C5.98932 8.68446 5.55687 8.55416 5.18883 8.30916C4.82079 8.06416 4.5337 7.71549 4.3639 7.30726C4.1941 6.89904 4.14922 6.44962 4.23494 6.01588C4.32066 5.58214 4.53312 5.18358 4.84545 4.87064C5.15777 4.55769 5.55591 4.34444 5.98948 4.25786C6.42305 4.17129 6.87256 4.21528 7.28112 4.38427C7.68967 4.55327 8.03892 4.83966 8.28464 5.20722C8.53037 5.57478 8.66153 6.00697 8.66153 6.4491C8.66124 7.04087 8.42633 7.60838 8.0083 8.02724C7.59027 8.4461 7.02322 8.68213 6.43145 8.68359ZM22.803 22.7854H18.9495V16.7503C18.9495 15.311 18.9208 13.4592 16.9477 13.4592C14.9393 13.4592 14.6316 15.0264 14.6316 16.6455V22.7854H10.778V10.3777H14.475V12.0728H14.5268C14.8978 11.4406 15.4331 10.9206 16.0759 10.5682C16.7187 10.2157 17.4449 10.0439 18.1774 10.0711C22.0773 10.0711 22.803 12.6419 22.803 15.9849V22.7854Z" fill="#494949"></path>
</svg>
