<svg width="24" height="24" viewBox="0 0 24 24" fill="none" xmlns="http://www.w3.org/2000/svg">
<path d="M22.2856 0H1.70937C1.25331 0.00322992 0.817169 0.187291 0.496691 0.511778C0.176212 0.836265 -0.00241412 1.27466 2.46478e-05 1.73072V22.2703C-0.00241412 22.7264 0.176212 23.1648 0.496691 23.4892C0.817169 23.8137 1.25331 23.9978 1.70937 24.001H22.2856C22.7418 23.9967 23.1778 23.8125 23.4989 23.4884C23.8199 23.1643 24 22.7265 24 22.2703V1.73072C24 1.27451 23.8199 0.836748 23.4989 0.512639C23.1778 0.188531 22.7418 0.00429371 22.2856 0ZM7.25378 20.5711H3.69664V9.11784H7.25989V20.5711H7.25378ZM5.47521 7.55408C5.06709 7.55489 4.66791 7.43461 4.32818 7.20845C3.98845 6.9823 3.72344 6.66045 3.5667 6.28363C3.40997 5.90681 3.36854 5.49196 3.44766 5.09158C3.52679 4.6912 3.72291 4.3233 4.01121 4.03443C4.29951 3.74556 4.66702 3.54871 5.06724 3.4688C5.46746 3.38888 5.88239 3.42949 6.25952 3.58548C6.63665 3.74148 6.95903 4.00584 7.18585 4.34513C7.41267 4.68441 7.53375 5.08335 7.53375 5.49147C7.53348 6.03772 7.31664 6.56159 6.93077 6.94823C6.54489 7.33487 6.02146 7.55274 5.47521 7.55408ZM20.5875 20.5711H17.0303V15.0003C17.0303 13.6717 17.0038 11.9623 15.1825 11.9623C13.3286 11.9623 13.0446 13.409 13.0446 14.9035V20.5711H9.48743V9.11784H12.9V10.6826H12.9478C13.2903 10.099 13.7845 9.61905 14.3778 9.29371C14.9711 8.96837 15.6415 8.80979 16.3177 8.83482C19.9176 8.83482 20.5875 11.2079 20.5875 14.2937V20.5711Z" fill="#FAB03C"></path>
</svg>
