<svg width="27" height="27" viewBox="0 0 27 27" fill="none" xmlns="http://www.w3.org/2000/svg">
<path fill-rule="evenodd" clip-rule="evenodd" d="M8.14045 0.578C9.52673 0.514182 9.96873 0.5 13.5 0.5C17.0313 0.5 17.4733 0.515364 18.8584 0.578C20.2435 0.640636 21.1889 0.861636 22.0162 1.18191C22.8825 1.50927 23.6684 2.021 24.3184 2.68282C24.9802 3.33164 25.4907 4.11636 25.8169 4.98382C26.1384 5.81109 26.3582 6.75655 26.422 8.13927C26.4858 9.52791 26.5 9.96991 26.5 13.5C26.5 17.0313 26.4846 17.4733 26.422 18.8595C26.3594 20.2423 26.1384 21.1877 25.8169 22.015C25.4907 22.8826 24.9793 23.6686 24.3184 24.3184C23.6684 24.9802 22.8825 25.4907 22.0162 25.8169C21.1889 26.1384 20.2435 26.3582 18.8607 26.422C17.4733 26.4858 17.0313 26.5 13.5 26.5C9.96873 26.5 9.52673 26.4846 8.14045 26.422C6.75773 26.3594 5.81227 26.1384 4.985 25.8169C4.11745 25.4907 3.33142 24.9793 2.68164 24.3184C2.02027 23.6692 1.50846 22.8835 1.18191 22.0162C0.861636 21.1889 0.641818 20.2435 0.578 18.8607C0.514182 17.4721 0.5 17.0301 0.5 13.5C0.5 9.96873 0.515364 9.52673 0.578 8.14164C0.640636 6.75655 0.861636 5.81109 1.18191 4.98382C1.50895 4.11646 2.02114 3.33082 2.68282 2.68164C3.33168 2.02041 4.11692 1.50861 4.98382 1.18191C5.81109 0.861636 6.75773 0.641818 8.14045 0.578ZM18.7532 2.918C17.3823 2.85536 16.971 2.84236 13.5 2.84236C10.029 2.84236 9.61773 2.85536 8.24682 2.918C6.97873 2.97591 6.29091 3.18745 5.83236 3.36591C5.22609 3.60227 4.79236 3.88236 4.33736 4.33736C3.90605 4.75697 3.57412 5.26779 3.36591 5.83236C3.18745 6.29091 2.97591 6.97873 2.918 8.24682C2.85536 9.61773 2.84236 10.029 2.84236 13.5C2.84236 16.971 2.85536 17.3823 2.918 18.7532C2.97591 20.0213 3.18745 20.7091 3.36591 21.1676C3.57391 21.7314 3.906 22.2431 4.33736 22.6626C4.75691 23.094 5.26864 23.4261 5.83236 23.6341C6.29091 23.8125 6.97873 24.0241 8.24682 24.082C9.61773 24.1446 10.0278 24.1576 13.5 24.1576C16.9722 24.1576 17.3823 24.1446 18.7532 24.082C20.0213 24.0241 20.7091 23.8125 21.1676 23.6341C21.7739 23.3977 22.2076 23.1176 22.6626 22.6626C23.094 22.2431 23.4261 21.7314 23.6341 21.1676C23.8125 20.7091 24.0241 20.0213 24.082 18.7532C24.1446 17.3823 24.1576 16.971 24.1576 13.5C24.1576 10.029 24.1446 9.61773 24.082 8.24682C24.0241 6.97873 23.8125 6.29091 23.6341 5.83236C23.3977 5.22609 23.1176 4.79236 22.6626 4.33736C22.243 3.90608 21.7322 3.57416 21.1676 3.36591C20.7091 3.18745 20.0213 2.97591 18.7532 2.918ZM11.8395 17.5075C12.7669 17.8936 13.7994 17.9457 14.7609 17.6549C15.7224 17.3642 16.5531 16.7487 17.1112 15.9136C17.6693 15.0784 17.9201 14.0754 17.8208 13.0759C17.7215 12.0763 17.2783 11.1422 16.5668 10.4332C16.1133 9.97993 15.5649 9.63287 14.9611 9.41699C14.3574 9.20111 13.7132 9.12179 13.0751 9.18473C12.437 9.24767 11.8208 9.4513 11.2709 9.78097C10.7209 10.1106 10.2509 10.5582 9.89463 11.0913C9.53838 11.6244 9.30477 12.2299 9.21061 12.8641C9.11645 13.4984 9.16409 14.1456 9.35009 14.7592C9.5361 15.3729 9.85584 15.9376 10.2863 16.4129C10.7168 16.8881 11.2472 17.2619 11.8395 17.5075ZM8.77509 8.77509C9.39557 8.15461 10.1322 7.66241 10.9429 7.32661C11.7536 6.99081 12.6225 6.81797 13.5 6.81797C14.3775 6.81797 15.2464 6.9908 16.0571 7.32661C16.8678 7.66241 17.6044 8.15461 18.2249 8.77509C18.8454 9.39557 19.3376 10.1322 19.6734 10.9429C20.0092 11.7536 20.182 12.6225 20.182 13.5C20.182 14.3775 20.0092 15.2464 19.6734 16.0571C19.3376 16.8678 18.8454 17.6044 18.2249 18.2249C16.9718 19.478 15.2722 20.182 13.5 20.182C11.7278 20.182 10.0282 19.478 8.77509 18.2249C7.52197 16.9718 6.81797 15.2722 6.81797 13.5C6.81797 11.7278 7.52197 10.0282 8.77509 8.77509ZM21.664 7.81309C21.8178 7.66805 21.9409 7.49362 22.026 7.30015C22.1111 7.10668 22.1566 6.89809 22.1597 6.68674C22.1628 6.47538 22.1234 6.26556 22.0439 6.06968C21.9645 5.87381 21.8465 5.69588 21.697 5.54641C21.5476 5.39694 21.3696 5.27899 21.1738 5.19952C20.9779 5.12006 20.7681 5.0807 20.5567 5.08378C20.3454 5.08686 20.1368 5.13232 19.9433 5.21746C19.7498 5.3026 19.5754 5.42569 19.4304 5.57945C19.1483 5.87849 18.9938 6.27569 18.9998 6.68674C19.0058 7.09778 19.1718 7.49031 19.4625 7.781C19.7531 8.07168 20.1457 8.23763 20.5567 8.24363C20.9678 8.24962 21.365 8.09518 21.664 7.81309Z" fill="#494949"></path>
</svg>
