<svg width="27" height="27" viewBox="0 0 27 27" fill="none" xmlns="http://www.w3.org/2000/svg">
<g clip-path="url('#clip0_666_1308')">
<path d="M26.5 13.5C26.5 6.32036 20.6796 0.5 13.5 0.5C6.32036 0.5 0.5 6.32036 0.5 13.5C0.5 19.5965 4.69744 24.7122 10.3597 26.1173V17.4728H7.67912V13.5H10.3597V11.7882C10.3597 7.36348 12.3622 5.3126 16.7063 5.3126C17.53 5.3126 18.9512 5.47432 19.5325 5.63552V9.23652C19.2257 9.20428 18.6927 9.18816 18.0308 9.18816C15.8993 9.18816 15.0756 9.99572 15.0756 12.095V13.5H19.3219L18.5924 17.4728H15.0756V26.4048C21.5127 25.6274 26.5005 20.1466 26.5005 13.5H26.5Z" fill="#494949"></path>
</g>
<defs>
<clipPath id="clip0_666_1308">
<rect width="26" height="26" fill="white" transform="translate(0.5 0.5)"></rect>
</clipPath>
</defs>
</svg>
